<?xml version="1.0" standalone="no"?>
<!DOCTYPE svg PUBLIC "-//W3C//DTD SVG 20010904//EN"
 "http://www.w3.org/TR/2001/REC-SVG-20010904/DTD/svg10.dtd">
<svg version="1.0" xmlns="http://www.w3.org/2000/svg"
 width="734.000000pt" height="361.000000pt" viewBox="0 0 734.000000 361.000000"
 preserveAspectRatio="xMidYMid meet">

<g transform="translate(0.000000,361.000000) scale(0.100000,-0.100000)"
fill="#000000" stroke="none">
<path d="M4875 3287 c-42 -42 -73 -137 -56 -174 24 -53 13 -104 -57 -263 -38
-85 -79 -175 -92 -200 l-23 -45 -19 70 c-12 47 -17 88 -13 125 16 163 16 175
-2 210 -35 69 -107 60 -140 -17 -21 -51 -10 -99 27 -118 17 -9 30 -24 30 -33
0 -10 16 -40 35 -67 20 -29 39 -72 46 -105 7 -30 16 -62 20 -71 9 -17 -42
-228 -87 -359 -27 -81 -28 -83 -180 -276 -200 -254 -241 -321 -322 -524 -17
-41 -44 -105 -62 -142 -31 -66 -32 -67 -88 -83 -101 -30 -165 -77 -178 -133
-7 -27 -31 -62 -44 -62 -7 0 6 128 20 180 5 19 12 73 16 120 6 73 11 89 35
117 15 18 33 52 39 75 17 64 22 69 74 90 66 26 180 106 242 170 53 54 124 152
124 170 0 20 -56 -1 -144 -51 l-88 -51 2 43 c4 106 0 147 -15 147 -8 0 -44
-29 -80 -64 -36 -35 -65 -59 -65 -54 0 21 -52 118 -64 118 -14 0 -83 -70 -115
-117 -12 -18 -25 -33 -29 -32 -4 0 -20 27 -36 59 -45 93 -65 90 -116 -16 -17
-35 -32 -64 -34 -64 -3 0 -21 29 -41 65 -55 99 -82 86 -101 -48 -3 -26 -10
-49 -14 -52 -5 -3 -37 8 -72 25 -116 55 -119 29 -9 -78 92 -89 203 -157 293
-179 35 -9 68 -21 74 -27 6 -6 21 -37 34 -69 18 -47 30 -62 58 -75 l34 -17 -6
-64 c-4 -35 -11 -72 -16 -82 -6 -10 -10 -35 -10 -56 0 -21 -5 -84 -12 -140
-13 -112 -5 -184 33 -296 11 -33 18 -61 16 -64 -9 -8 -78 60 -141 140 -35 45
-78 95 -95 111 l-31 30 -1 220 c-1 127 -4 210 -9 196 -4 -14 -8 -58 -9 -99
l-1 -74 -21 19 c-12 10 -58 65 -103 120 -85 106 -83 103 -112 253 -14 74 -139
159 -171 115 -16 -21 -16 -37 -3 -85 10 -36 67 -109 86 -109 21 0 106 -79 150
-140 26 -36 76 -95 111 -131 l64 -66 -3 -103 -3 -102 -46 35 c-31 24 -75 80
-134 169 -48 73 -108 163 -132 200 -25 37 -76 101 -114 143 l-69 75 1 158 c1
171 10 264 27 270 11 3 -17 62 -31 62 -4 0 -8 -19 -8 -42 0 -24 -2 -130 -5
-237 -6 -191 -6 -193 -25 -174 -11 11 -58 111 -105 224 -80 190 -86 209 -89
282 -1 42 2 77 6 77 33 0 -25 190 -73 239 -31 32 -69 48 -87 37 -17 -11 -32
-84 -25 -124 14 -77 48 -141 115 -215 9 -10 23 -32 32 -50 27 -54 157 -391
153 -395 -3 -2 -56 41 -118 96 -106 94 -117 107 -165 199 -28 54 -70 141 -93
193 -42 94 -42 96 -36 183 5 77 10 95 36 134 16 24 37 57 45 73 47 91 -23 227
-100 192 -51 -24 -61 -133 -20 -217 26 -52 30 -106 17 -193 l-7 -44 -21 29
c-40 55 -150 219 -188 279 -32 53 -39 73 -45 146 -9 93 -31 139 -86 177 -40
27 -70 27 -89 -1 -20 -28 -20 -62 0 -121 16 -47 30 -62 123 -127 27 -19 57
-48 67 -65 36 -62 129 -203 185 -280 32 -44 73 -116 92 -160 19 -44 51 -113
71 -152 20 -40 34 -73 30 -73 -3 0 -31 23 -62 51 -91 80 -380 269 -413 269 -5
0 -9 -7 -9 -15 0 -8 6 -15 14 -15 22 0 182 -97 286 -173 52 -39 145 -116 205
-171 61 -56 137 -125 170 -154 54 -49 57 -53 30 -47 -70 16 -147 25 -260 31
l-120 7 -62 62 -61 63 29 57 c35 70 39 125 9 125 -28 0 -64 -38 -81 -83 -7
-20 -18 -37 -24 -37 -17 1 -79 62 -110 108 -18 28 -29 59 -31 85 -2 49 -16 57
-55 28 -27 -20 -30 -20 -63 -4 -20 9 -38 14 -42 11 -3 -4 -8 -24 -11 -46 -5
-35 -9 -40 -41 -48 -50 -13 -50 -28 1 -53 24 -11 65 -46 91 -76 26 -30 60 -62
76 -70 16 -9 42 -40 63 -78 41 -73 115 -177 160 -225 23 -24 27 -32 14 -32 -9
0 -25 10 -37 22 -24 26 -34 18 -35 -25 0 -25 -5 -33 -22 -35 -13 -2 -23 -7
-23 -12 0 -5 10 -15 23 -21 31 -16 31 -16 13 -34 -19 -19 -21 -55 -4 -55 6 0
19 7 28 15 14 13 26 13 74 4 43 -9 60 -9 69 0 20 20 33 12 105 -73 63 -74 91
-119 63 -102 -5 3 -21 -4 -36 -16 -22 -17 -26 -27 -23 -54 4 -37 -3 -41 -47
-24 -61 23 -190 53 -347 79 -115 20 -178 36 -202 51 -46 28 -122 113 -158 177
-34 60 -52 77 -73 69 -23 -8 -18 -58 9 -98 29 -43 106 -115 152 -144 l35 -21
-123 -6 c-114 -5 -124 -4 -138 14 -12 15 -40 23 -110 34 -52 8 -105 17 -117
21 -19 5 -23 2 -23 -14 0 -12 5 -24 10 -27 6 -4 2 -13 -11 -23 -21 -17 -21
-17 -1 -36 16 -13 19 -26 15 -52 -6 -37 7 -45 33 -19 11 10 36 15 84 15 64 0
72 3 106 33 l37 32 136 0 c154 -1 274 -12 266 -26 -4 -5 -14 -9 -23 -9 -10 0
-50 -15 -89 -34 -108 -52 -183 -128 -183 -186 0 -47 30 -32 118 56 68 69 105
98 168 131 l82 41 73 -14 c41 -8 112 -25 159 -38 l85 -23 -73 -36 c-40 -19
-73 -38 -73 -42 0 -4 10 -13 23 -19 14 -7 24 -22 26 -40 3 -26 6 -28 38 -22
29 6 34 4 34 -12 0 -21 38 -74 40 -57 1 6 3 21 4 35 1 14 18 47 39 73 20 27
37 55 37 63 0 8 7 14 15 14 21 0 162 -65 280 -130 l100 -54 -132 -12 c-138
-12 -182 -27 -211 -74 -20 -34 -7 -36 61 -11 102 38 167 51 263 51 84 0 93 -2
140 -32 62 -39 330 -177 407 -208 31 -13 57 -27 57 -31 0 -5 -82 -7 -182 -6
l-183 2 -153 78 c-85 43 -160 76 -168 73 -25 -10 10 -61 66 -97 27 -18 50 -34
50 -36 0 -13 -300 45 -475 92 -82 22 -133 31 -139 25 -5 -5 -8 -11 -5 -13 2
-2 65 -20 139 -40 164 -44 351 -81 484 -98 l99 -12 -78 -28 c-42 -16 -82 -33
-89 -38 -6 -5 -57 -12 -114 -16 -56 -4 -105 -11 -108 -16 -3 -5 9 -17 25 -27
18 -10 29 -23 26 -30 -3 -8 -8 -25 -11 -39 -6 -23 -4 -25 25 -22 27 3 34 -1
49 -31 11 -18 23 -35 29 -37 6 -2 15 23 22 55 7 35 20 67 31 77 11 10 20 26
20 36 0 24 80 67 155 84 60 13 305 39 311 32 2 -2 -18 -18 -45 -36 -107 -69
-221 -241 -160 -241 12 0 17 5 89 90 89 105 143 161 171 175 18 10 57 13 130
11 135 -4 201 -27 289 -101 35 -30 68 -55 72 -55 19 0 5 20 -39 56 -88 72
-263 267 -251 279 3 3 24 -1 47 -10 23 -8 64 -17 92 -21 31 -4 65 -18 89 -35
54 -39 125 -131 163 -211 18 -37 38 -68 45 -68 19 0 14 20 -23 94 -19 39 -35
71 -35 73 0 8 94 46 159 65 166 48 394 81 646 94 117 5 136 4 185 -15 75 -28
224 -126 323 -212 125 -109 177 -125 177 -57 0 53 -80 120 -248 204 -77 40
-139 74 -137 76 8 8 181 -11 349 -38 223 -36 233 -42 455 -294 74 -84 134
-130 168 -130 32 0 31 33 -3 81 -43 63 -234 223 -319 267 -25 13 -33 21 -21
22 30 0 429 -89 462 -104 30 -14 31 -16 26 -70 -4 -51 -2 -57 27 -86 26 -26
38 -31 69 -29 28 2 47 -3 67 -19 38 -30 80 -29 101 3 9 14 27 28 39 31 34 8
58 39 60 76 1 18 5 41 9 51 11 23 -1 82 -19 97 -37 31 -170 90 -201 90 -36 0
-84 -38 -84 -66 0 -7 -22 -20 -49 -29 -47 -15 -53 -15 -147 8 -148 37 -269 64
-363 81 -47 9 -86 18 -89 20 -7 8 58 15 173 20 123 5 171 16 203 46 27 26 27
35 2 60 -38 38 -104 29 -365 -48 -95 -28 -265 -50 -265 -34 0 4 30 15 66 25
36 9 102 33 147 53 162 71 395 162 497 194 102 32 104 33 154 18 28 -9 85 -26
126 -38 41 -13 120 -41 175 -62 55 -22 133 -53 173 -69 115 -45 198 -64 228
-51 85 39 -81 150 -271 181 -124 20 -396 61 -408 61 -7 0 -7 3 -2 9 6 6 66 22
135 36 102 21 163 27 335 32 l210 6 43 -41 c24 -23 52 -44 63 -47 14 -5 19
-16 19 -44 0 -60 55 -91 110 -61 13 7 29 5 55 -6 55 -23 115 4 115 52 0 13 9
28 19 34 11 5 24 25 30 43 10 29 8 44 -14 103 -33 87 -45 98 -98 99 -24 0 -55
8 -70 18 -54 35 -120 8 -129 -53 -2 -15 -11 -26 -22 -28 -11 -3 -36 -15 -55
-27 -34 -22 -47 -23 -276 -28 -194 -4 -258 -9 -335 -26 -230 -51 -439 -122
-760 -259 -241 -103 -328 -122 -465 -103 l-50 7 96 32 c161 55 312 139 493
276 150 113 215 131 533 144 196 8 223 16 209 60 -22 70 -219 68 -418 -4 -38
-14 -72 -23 -75 -21 -2 3 27 24 66 46 185 108 282 137 295 87 8 -32 58 -53 92
-37 14 6 38 11 53 11 30 0 61 27 61 52 0 9 7 21 15 28 22 19 19 77 -5 92 -11
7 -20 18 -20 25 0 7 -12 24 -26 38 -24 24 -30 25 -92 19 -53 -5 -73 -12 -95
-33 -27 -24 -28 -34 -13 -72 11 -27 -39 -76 -102 -99 -98 -36 -230 -118 -412
-253 -230 -172 -238 -177 -245 -177 -10 0 88 113 167 194 38 37 68 69 68 71 0
1 -23 -5 -50 -14 -39 -13 -58 -27 -83 -61 -114 -159 -204 -253 -277 -290 -31
-15 -112 -46 -180 -68 -122 -39 -130 -41 -305 -47 -381 -13 -665 -60 -848
-142 -31 -14 -60 -23 -63 -20 -12 11 51 56 95 67 25 6 80 22 121 36 41 14 80
26 85 28 6 1 36 19 67 39 31 20 61 37 66 37 5 0 29 18 53 40 24 22 63 50 87
61 23 11 42 24 42 29 0 4 19 20 43 35 23 16 63 46 88 67 25 21 55 38 67 38 15
0 22 6 22 20 0 10 9 24 21 30 17 9 25 8 41 -7 31 -28 158 -25 216 4 65 33 144
46 228 38 81 -7 213 10 241 31 16 12 16 13 -10 14 -15 0 -46 9 -70 19 -63 30
-163 61 -192 61 -25 0 -25 1 11 33 49 42 94 114 94 149 0 34 -6 35 -60 4 -32
-18 -51 -22 -85 -18 -40 4 -188 -12 -221 -25 -9 -3 -14 1 -14 12 0 50 -43 157
-81 201 -45 52 -64 85 -74 132 -4 19 -11 30 -15 25 -5 -4 -2 -53 6 -108 20
-130 14 -207 -22 -281 -35 -74 -42 -154 -19 -209 l16 -40 -58 -53 c-32 -29
-67 -58 -79 -65 -12 -6 -49 -34 -83 -62 -34 -27 -76 -58 -94 -67 -17 -10 -40
-28 -52 -41 -51 -59 -235 -152 -331 -167 -31 -5 -76 -19 -101 -31 -24 -12 -47
-18 -51 -14 -4 4 -7 48 -6 98 0 94 22 185 64 267 16 31 26 38 58 43 92 15 186
118 239 264 33 90 27 108 -17 53 -19 -25 -48 -58 -64 -73 -35 -34 -106 -72
-106 -57 0 10 58 152 113 275 48 106 89 175 167 280 62 84 78 100 130 124 32
16 108 41 167 56 104 27 133 39 122 50 -7 6 -241 -61 -279 -80 -16 -8 -31 -15
-34 -15 -3 0 31 47 77 103 45 57 119 151 165 209 80 101 191 216 296 305 72
61 269 127 463 155 75 11 88 10 131 -6 112 -44 129 -48 175 -43 50 4 87 29 87
57 0 24 -21 39 -75 55 -39 12 -55 12 -122 -2 -43 -10 -80 -20 -83 -23 -3 -4
-34 -10 -70 -13 -93 -8 -211 -34 -310 -67 -47 -15 -86 -27 -88 -25 -2 2 341
255 426 313 41 28 94 43 162 46 60 2 85 12 153 58 125 85 133 192 12 174 -62
-10 -147 -68 -203 -140 -58 -73 -53 -69 -292 -236 -301 -210 -506 -384 -638
-542 -36 -43 -67 -77 -68 -75 -2 1 8 38 21 81 13 43 32 115 41 160 9 47 33
114 57 161 22 44 66 142 99 219 52 124 65 145 119 200 70 69 79 88 79 155 0
55 -28 101 -62 101 -11 0 -35 -15 -53 -33z m-2773 -1310 l38 -32 -8 -73 c-5
-41 -14 -77 -21 -81 -10 -6 -9 -10 3 -14 10 -4 16 -18 16 -38 l0 -32 -18 24
c-10 13 -40 59 -67 102 -36 59 -45 81 -36 90 6 6 11 28 11 49 0 33 3 38 23 38
12 -1 39 -15 59 -33z m188 -179 c0 -4 -27 -8 -60 -8 -33 0 -60 1 -60 3 0 2 7
25 16 51 l16 48 44 -43 c24 -24 44 -47 44 -51z m265 -49 c55 -5 124 -16 152
-24 101 -26 106 -32 217 -250 103 -204 131 -251 218 -363 47 -60 58 -94 21
-59 -10 8 -76 45 -147 82 -85 43 -167 96 -240 153 -61 48 -136 106 -167 129
-55 41 -56 42 -63 104 -3 37 -13 70 -22 79 -14 13 -18 12 -36 -12 l-21 -27
-21 32 c-47 69 -150 106 -201 73 -14 -9 -25 -25 -25 -36 0 -28 -13 -25 -38 10
-22 29 -31 107 -14 125 8 8 235 -1 387 -16z m417 -226 c20 -21 89 -116 153
-212 83 -125 110 -172 95 -168 -28 7 -25 -6 13 -60 50 -72 89 -143 75 -137
-18 8 -169 199 -225 286 -101 155 -182 328 -154 328 4 0 23 -17 43 -37z m-562
-42 c61 -7 54 3 83 -121 9 -36 19 -73 22 -82 17 -42 -20 -10 -109 95 -97 113
-118 149 -74 126 12 -7 47 -15 78 -18z m308 -175 l134 -101 -74 -6 c-160 -15
-216 33 -218 184 0 46 -13 52 158 -77z m271 -182 c236 -125 274 -153 362 -274
14 -19 69 -88 123 -153 54 -66 95 -121 93 -123 -7 -7 -152 49 -291 112 -129
58 -324 165 -386 212 -81 61 -250 221 -250 236 0 23 74 44 159 45 83 1 84 1
190 -55z m-303 -79 c38 -35 66 -65 63 -65 -13 0 -199 102 -199 110 0 9 22 17
51 19 9 0 47 -28 85 -64z m1174 -2 c0 -5 -16 -53 -35 -108 -31 -88 -35 -112
-35 -200 l-1 -100 -29 33 c-17 18 -30 40 -30 50 0 10 -4 22 -9 27 -16 18 -51
151 -51 197 0 35 5 49 28 70 15 14 34 28 42 31 23 8 120 8 120 0z"/>
<path d="M1078 2757 c-30 -24 -16 -75 32 -115 33 -28 144 -73 178 -72 182 2
190 1 262 -35 38 -19 74 -35 80 -35 21 0 9 16 -22 29 -133 59 -181 86 -238
136 -36 31 -85 65 -110 77 -58 26 -158 34 -182 15z"/>
<path d="M5124 2565 c-46 -28 -89 -85 -99 -132 -4 -18 -11 -35 -16 -38 -5 -4
-9 -14 -9 -23 0 -9 -12 -28 -27 -44 -31 -33 -23 -51 10 -21 28 26 101 63 123
63 10 0 37 20 60 45 50 52 71 110 53 149 -15 33 -42 33 -95 1z"/>
<path d="M5363 2455 c-23 -16 -73 -94 -73 -111 1 -5 9 7 19 26 15 26 30 38 67
50 30 9 49 21 49 30 0 21 -36 24 -62 5z"/>
<path d="M5613 2402 c-10 -10 -43 -35 -73 -55 -30 -20 -82 -62 -115 -94 -33
-32 -68 -58 -79 -58 -10 0 -21 -7 -24 -15 -5 -13 -3 -13 14 0 17 13 18 13 8 0
-7 -8 -34 -46 -62 -83 -28 -37 -54 -68 -59 -68 -4 1 -8 -3 -8 -8 0 -5 -3 -12
-7 -16 -9 -9 -5 11 11 58 10 29 18 37 37 37 14 0 24 6 24 14 0 8 10 22 22 30
12 9 19 19 15 22 -4 4 -16 -1 -27 -11 -11 -10 -20 -14 -20 -9 0 5 9 15 20 22
12 7 18 18 14 24 -4 6 -3 8 3 5 6 -4 13 0 16 7 4 10 0 13 -14 11 -21 -4 -26
10 -6 19 6 3 1 3 -12 0 -22 -6 -23 -4 -19 27 3 19 8 43 12 54 3 11 -2 3 -12
-18 -11 -21 -24 -43 -31 -50 -6 -6 -11 -20 -11 -30 0 -27 -53 -197 -61 -197
-4 0 0 19 8 43 24 65 51 182 44 185 -4 1 -25 -4 -47 -11 l-39 -14 -1 -101 c0
-55 4 -98 8 -96 4 3 8 1 8 -4 0 -6 -7 -12 -15 -16 -10 -4 -15 -19 -14 -48 1
-24 3 -35 6 -25 2 9 9 17 15 17 6 0 7 -7 3 -17 -26 -64 4 -62 52 3 77 103 135
179 142 184 4 3 21 28 39 55 38 59 53 74 150 147 49 37 80 54 93 51 20 -6 69
21 69 37 0 17 -58 11 -77 -8z m-329 -198 c4 -9 4 -19 1 -22 -3 -3 -5 1 -5 9
-1 10 -5 8 -17 -6 -14 -18 -15 -18 -9 -2 3 10 6 23 6 28 0 15 17 10 24 -7z
m-91 -44 c-3 -12 -8 -19 -11 -16 -5 6 5 36 12 36 2 0 2 -9 -1 -20z m54 -32
c-3 -8 -6 -5 -6 6 -1 11 2 17 5 13 3 -3 4 -12 1 -19z m-82 -147 c-3 -12 -14
-21 -23 -21 -14 0 -14 2 -3 9 7 5 11 13 7 19 -3 6 0 12 6 15 18 6 21 2 13 -22z"/>
<path d="M1348 2351 c-51 -11 -118 -56 -118 -81 0 -33 44 -54 98 -47 49 6 161
57 182 82 7 9 29 15 51 15 70 0 41 17 -41 24 -44 3 -92 8 -107 10 -16 3 -45 1
-65 -3z"/>
<path d="M5662 2228 c-5 -7 -13 -27 -16 -45 -7 -31 -41 -67 -156 -163 -72 -61
-86 -70 -94 -63 -3 3 -6 -1 -6 -10 0 -9 -4 -17 -8 -17 -14 0 -102 -85 -102
-98 0 -18 28 -15 39 5 5 10 19 18 32 18 12 0 24 7 27 15 5 13 3 13 -14 0 -19
-14 -19 -14 0 8 19 22 32 30 22 13 -3 -5 0 -11 8 -14 9 -4 12 0 9 12 -3 11 16
33 59 68 78 63 128 111 128 121 0 4 23 31 50 59 34 35 50 59 50 77 0 28 -11
34 -28 14z"/>
<path d="M5892 2204 c-13 -9 -27 -27 -32 -39 -12 -31 -157 -154 -223 -189 -29
-16 -47 -22 -40 -16 9 10 7 17 -10 32 l-22 19 26 -15 c24 -15 39 -13 39 6 0 5
-4 7 -8 4 -4 -2 -14 -1 -22 5 -13 7 -12 9 3 9 9 0 17 5 17 11 0 6 -7 9 -14 6
-10 -4 -13 -1 -9 9 3 8 -11 0 -31 -18 -40 -35 -45 -43 -19 -34 10 4 14 3 9 -1
-4 -4 -17 -8 -29 -8 -11 0 -22 -6 -25 -14 -3 -8 0 -11 7 -7 7 5 9 1 5 -8 -3
-9 -10 -16 -16 -16 -5 0 -6 5 -2 12 5 8 2 9 -10 5 -10 -4 -20 -7 -22 -7 -11 0
-2 -30 12 -38 15 -8 15 -10 0 -15 -10 -4 -15 -3 -11 3 3 6 1 10 -4 10 -6 0
-11 -6 -11 -12 0 -7 -27 -27 -60 -44 -33 -17 -57 -26 -53 -20 3 6 -2 3 -12 -6
-15 -14 -16 -20 -6 -32 12 -14 16 -14 40 3 24 17 126 71 134 71 2 0 4 -6 4
-14 0 -8 -5 -12 -11 -10 -16 5 -102 -39 -98 -51 2 -5 11 -9 20 -7 9 2 0 -11
-22 -29 -36 -30 -37 -33 -20 -46 10 -7 28 -13 41 -13 13 0 22 -5 21 -12 -4
-19 200 -15 219 5 12 12 12 15 -1 26 -11 10 -23 10 -53 1 -55 -17 -103 -22
-103 -11 0 4 37 14 83 21 45 6 105 18 132 25 28 8 86 24 130 35 44 12 112 36
150 54 39 18 85 39 103 46 28 11 52 36 52 54 0 3 -10 6 -23 6 -13 0 -37 -15
-56 -34 -39 -41 -113 -75 -235 -110 -100 -29 -166 -34 -166 -12 0 8 -6 17 -12
19 -9 4 -10 6 -1 6 6 1 19 -6 27 -15 19 -18 21 -5 4 19 -12 16 -18 15 -80 -10
-37 -16 -68 -31 -68 -35 0 -5 15 -8 33 -8 21 0 28 3 18 9 -8 6 -1 8 23 7 63
-2 39 -12 -71 -31 -60 -9 -119 -24 -133 -32 l-25 -14 26 23 c14 13 73 43 133
66 59 24 124 54 144 68 20 14 65 39 99 55 82 39 127 102 61 86 -13 -4 -31 -20
-41 -37 -25 -42 -123 -92 -137 -70 -9 14 -11 13 -14 -11 -1 -10 -127 -69 -149
-69 -7 0 -24 -6 -38 -14 -18 -9 -31 -10 -40 -4 -11 8 -10 9 4 4 9 -3 17 -2 17
2 0 4 34 18 75 31 41 13 78 28 81 33 4 6 -2 8 -17 4 -24 -7 -24 -7 1 8 14 9
33 15 43 16 9 0 17 5 17 10 0 13 -4 13 -47 -5 -51 -21 -55 -18 -7 8 41 22 148
105 241 187 28 25 65 55 82 68 51 39 34 72 -17 36z m-369 -285 c-8 -8 -16 -8
-30 1 -15 10 -15 11 -1 6 10 -3 20 -1 24 5 3 6 9 8 12 4 3 -3 1 -10 -5 -16z
m21 -45 c4 -10 1 -14 -6 -12 -15 5 -23 28 -10 28 5 0 13 -7 16 -16z m-77 -170
c-3 -3 -12 -4 -19 -1 -8 3 -5 6 6 6 11 1 17 -2 13 -5z"/>
<path d="M5371 2144 c-12 -15 -21 -31 -21 -36 0 -5 -4 -6 -10 -3 -10 6 -14 -7
-11 -34 2 -7 -2 -11 -7 -8 -4 4 -16 -3 -25 -14 -9 -10 -14 -19 -10 -19 5 0 -3
-11 -17 -24 -30 -28 -49 -51 -72 -88 -23 -34 -23 -44 -1 -27 9 8 14 9 10 3 -4
-7 1 -15 10 -18 19 -8 83 49 83 73 0 12 -3 12 -12 3 -7 -7 -16 -12 -22 -12 -5
0 -1 6 9 14 11 8 24 12 28 9 5 -3 14 3 21 12 10 15 12 14 12 -6 0 -13 -18 -36
-48 -62 -50 -42 -59 -57 -33 -57 17 0 63 38 109 90 68 77 107 112 114 105 4
-4 1 -10 -6 -12 -17 -6 -53 -45 -48 -51 3 -2 23 14 46 37 23 23 46 41 51 41 5
0 9 5 9 10 0 7 -8 7 -22 -1 -19 -9 -21 -9 -10 2 6 7 12 28 12 46 0 26 -4 33
-19 33 -24 0 -39 -19 -47 -58 -7 -34 -38 -69 -48 -53 -4 5 -2 12 4 16 5 3 10
3 10 -2 0 -10 20 19 20 30 0 5 -6 5 -12 2 -7 -4 -5 0 6 9 13 11 17 22 12 40
-5 21 -3 24 11 19 11 -4 14 -3 9 5 -13 22 -63 14 -85 -14z m29 -9 c-7 -9 -15
-13 -18 -10 -3 2 1 11 8 20 7 9 15 13 18 10 3 -2 -1 -11 -8 -20z m30 -9 c0 -2
-7 -9 -15 -16 -13 -11 -14 -10 -9 4 5 14 24 23 24 12z m-58 -129 c-18 -17 -22
-18 -16 -4 3 9 10 17 15 17 5 0 9 5 9 11 0 5 -5 7 -12 3 -7 -5 -8 -3 -3 5 5 9
10 10 18 2 8 -8 5 -17 -11 -34z m-112 -32 c-7 -9 -15 -13 -17 -11 -7 7 7 26
19 26 6 0 6 -6 -2 -15z"/>
<path d="M5240 2075 c-7 -9 -11 -17 -9 -20 3 -2 10 5 17 15 14 24 10 26 -8 5z"/>
<path d="M5440 1921 c0 -7 -5 -9 -12 -5 -7 4 -8 3 -4 -4 4 -7 2 -12 -3 -12 -6
0 -11 -4 -11 -10 0 -5 4 -10 10 -10 12 0 34 40 26 48 -3 3 -6 0 -6 -7z"/>
<path d="M5360 1780 c10 -6 11 -10 3 -10 -7 0 -13 -5 -13 -10 0 -7 7 -7 20 0
23 12 18 30 -8 30 -15 0 -15 -2 -2 -10z"/>
<path d="M5465 1760 c-14 -7 -8 -8 20 -3 22 3 42 7 44 9 9 8 -45 2 -64 -6z"/>
<path d="M5685 1730 c-3 -5 -13 -7 -23 -4 -13 5 -14 4 -3 -4 10 -7 10 -14 3
-29 -9 -16 -6 -21 19 -30 16 -6 29 -7 29 -2 0 5 -7 9 -16 9 -8 0 -12 5 -9 10
4 6 10 8 15 5 4 -3 10 2 14 10 3 8 1 15 -5 15 -6 0 -9 7 -5 15 6 16 -9 21 -19
5z"/>
<path d="M5745 1561 c-3 -6 -1 -28 4 -48 6 -21 12 -51 14 -68 l2 -30 14 24 c7
13 14 47 15 75 1 45 -2 51 -21 54 -11 2 -24 -2 -28 -7z"/>
<path d="M920 924 c-58 -9 -118 -15 -135 -15 -16 1 -87 3 -157 5 -133 4 -134
3 -99 -37 11 -13 12 -22 5 -35 -14 -23 -7 -42 17 -42 10 0 19 -6 19 -14 0 -8
8 -24 19 -37 l18 -23 18 28 c10 15 44 40 75 56 32 16 61 39 67 52 10 22 21 26
95 36 281 38 572 16 916 -68 69 -17 121 -25 126 -20 13 13 -19 23 -160 55
-294 66 -617 89 -824 59z"/>
</g>
</svg>
